<svg xmlns="http://www.w3.org/2000/svg" viewBox="0 0 128 128" width="128" height="128">
  <!-- Corpo da abelha -->
  <ellipse cx="64" cy="72" rx="22" ry="28" fill="#F2C94C" stroke="#0B5FA5" stroke-width="3"/>
  
  <!-- Listras azuis -->
  <rect x="44" y="62" width="40" height="6" fill="#0B5FA5"/>
  <rect x="44" y="74" width="40" height="6" fill="#0B5FA5"/>
  <rect x="44" y="86" width="40" height="6" fill="#0B5FA5"/>
  
  <!-- Cabeça -->
  <circle cx="64" cy="36" r="16" fill="#F2C94C" stroke="#0B5FA5" stroke-width="3"/>
  
  <!-- Olhos -->
  <circle cx="58" cy="34" r="3" fill="#0B5FA5"/>
  <circle cx="70" cy="34" r="3" fill="#0B5FA5"/>
  
  <!-- Sorriso -->
  <path d="M58 42 Q64 48 70 42" stroke="#0B5FA5" stroke-width="2" fill="none" stroke-linecap="round"/>
  
  <!-- Asas -->
  <ellipse cx="44" cy="28" rx="14" ry="20" fill="#F7F2E7" stroke="#0B5FA5" stroke-width="2"/>
  <ellipse cx="84" cy="28" rx="14" ry="20" fill="#F7F2E7" stroke="#0B5FA5" stroke-width="2"/>
  
  <!-- Antenas -->
  <path d="M56 20 Q52 10 46 14" stroke="#0B5FA5" stroke-width="2" fill="none"/>
  <path d="M72 20 Q76 10 82 14" stroke="#0B5FA5" stroke-width="2" fill="none"/>
  
  <!-- Letras flutuando -->
  <text x="20" y="20" font-size="12" fill="#0B5FA5" font-family="Arial">A</text>
  <text x="100" y="22" font-size="12" fill="#0B5FA5" font-family="Arial">B</text>
  <text x="18" y="80" font-size="12" fill="#0B5FA5" font-family="Arial">C</text>
  <text x="102" y="90" font-size="12" fill="#0B5FA5" font-family="Arial">D</text>
</svg>
