<svg xmlns="http://www.w3.org/2000/svg" width="24" height="24" viewBox="0 0 24 24" fill="#0B5FA5">
  <path d="M12 2.163c3.204 0 3.584.012 4.85.07 1.366.062 2.633.35 3.608 1.325.975.975 1.262 2.242 1.324 3.608.058 1.266.07 1.646.07 4.85s-.012 3.584-.07 4.85c-.062 1.366-.349 2.633-1.324 3.608-.975.975-2.242 1.262-3.608 1.324-1.266.058-1.646.07-4.85.07s-3.584-.012-4.85-.07c-1.366-.062-2.633-.349-3.608-1.324-.975-.975-1.263-2.242-1.325-3.608C2.175 15.747 2.163 15.367 2.163 12s.012-3.584.07-4.85c.062-1.366.35-2.633 1.325-3.608.975-.975 2.242-1.263 3.608-1.325C8.416 2.175 8.796 2.163 12 2.163zm0-2.163C8.741 0 8.332.013 7.052.072 5.775.131 4.638.425 3.678 1.385 2.718 2.345 2.424 3.482 2.365 4.759 2.306 6.039 2.293 6.448 2.293 12s.013 5.961.072 7.241c.059 1.277.353 2.414 1.313 3.374.96.96 2.097 1.254 3.374 1.313C8.332 23.987 8.741 24 12 24s3.668-.013 4.948-.072c1.277-.059 2.414-.353 3.374-1.313.96-.96 1.254-2.097 1.313-3.374.059-1.28.072-1.689.072-7.241s-.013-5.961-.072-7.241c-.059-1.277-.353-2.414-1.313-3.374C19.362.425 18.225.131 16.948.072 15.668.013 15.259 0 12 0z"/>
  <path d="M12 5.838A6.162 6.162 0 1 0 12 18.162 6.162 6.162 0 1 0 12 5.838zm0 10.162a3.999 3.999 0 1 1 0-7.998 3.999 3.999 0 1 1 0 7.998z"/>
  <circle cx="18.406" cy="5.594" r="1.44"/>
</svg>
